<?xml version="1.0" encoding="UTF-8" standalone="no"?>
<svg
   version="1.1"
   width="24"
   height="24"
   viewBox="0 0 24 24"
   id="svg1"
   sodipodi:docname="info.svg"
   inkscape:version="1.3.2 (091e20e, 2023-11-25)"
   xmlns:inkscape="http://www.inkscape.org/namespaces/inkscape"
   xmlns:sodipodi="http://sodipodi.sourceforge.net/DTD/sodipodi-0.dtd"
   xmlns="http://www.w3.org/2000/svg"
   xmlns:svg="http://www.w3.org/2000/svg">
  <defs
     id="defs1" />
  <sodipodi:namedview
     id="namedview1"
     pagecolor="#ffffff"
     bordercolor="#000000"
     borderopacity="0.25"
     inkscape:showpageshadow="2"
     inkscape:pageopacity="0.0"
     inkscape:pagecheckerboard="0"
     inkscape:deskcolor="#d1d1d1"
     inkscape:zoom="9.8333333"
     inkscape:cx="12"
     inkscape:cy="12"
     inkscape:window-width="1312"
     inkscape:window-height="449"
     inkscape:window-x="0"
     inkscape:window-y="38"
     inkscape:window-maximized="0"
     inkscape:current-layer="svg1" />
  <path
     d="M13.5,4A1.5,1.5 0 0,0 12,5.5A1.5,1.5 0 0,0 13.5,7A1.5,1.5 0 0,0 15,5.5A1.5,1.5 0 0,0 13.5,4M13.14,8.77C11.95,8.87 8.7,11.46 8.7,11.46C8.5,11.61 8.56,11.6 8.72,11.88C8.88,12.15 8.86,12.17 9.05,12.04C9.25,11.91 9.58,11.7 10.13,11.36C12.25,10 10.47,13.14 9.56,18.43C9.2,21.05 11.56,19.7 12.17,19.3C12.77,18.91 14.38,17.8 14.54,17.69C14.76,17.54 14.6,17.42 14.43,17.17C14.31,17 14.19,17.12 14.19,17.12C13.54,17.55 12.35,18.45 12.19,17.88C12,17.31 13.22,13.4 13.89,10.71C14,10.07 14.3,8.67 13.14,8.77Z"
     id="path1"
     style="fill:#ffffff" />
</svg>
