<?xml version="1.0" encoding="UTF-8" standalone="no"?>
<svg
   width="64"
   height="64"
   viewBox="0 0 63.999997 64"
   id="svg4160"
   version="1.1"
   sodipodi:docname="klipper.svg"
   inkscape:version="1.3.2 (091e20e, 2023-11-25)"
   xml:space="preserve"
   xmlns:inkscape="http://www.inkscape.org/namespaces/inkscape"
   xmlns:sodipodi="http://sodipodi.sourceforge.net/DTD/sodipodi-0.dtd"
   xmlns="http://www.w3.org/2000/svg"
   xmlns:svg="http://www.w3.org/2000/svg"
   xmlns:rdf="http://www.w3.org/1999/02/22-rdf-syntax-ns#"
   xmlns:cc="http://creativecommons.org/ns#"
   xmlns:dc="http://purl.org/dc/elements/1.1/"><sodipodi:namedview
     pagecolor="#ffffff"
     bordercolor="#666666"
     borderopacity="1"
     objecttolerance="10"
     gridtolerance="10"
     guidetolerance="10"
     inkscape:pageopacity="0"
     inkscape:pageshadow="2"
     inkscape:window-width="1920"
     inkscape:window-height="958"
     id="namedview8"
     showgrid="false"
     inkscape:zoom="2.0352204"
     inkscape:cx="-4.9134727"
     inkscape:cy="67.56025"
     inkscape:window-x="1512"
     inkscape:window-y="25"
     inkscape:window-maximized="1"
     inkscape:current-layer="layer2"
     inkscape:document-rotation="0"
     inkscape:pagecheckerboard="true"
     inkscape:snap-bbox="true"
     inkscape:bbox-paths="true"
     inkscape:bbox-nodes="true"
     inkscape:snap-bbox-edge-midpoints="true"
     inkscape:snap-bbox-midpoints="true"
     inkscape:showpageshadow="2"
     inkscape:deskcolor="#d1d1d1"><inkscape:grid
       type="xygrid"
       id="grid832"
       originx="0"
       originy="0"
       spacingy="1"
       spacingx="1"
       units="px"
       visible="false" /></sodipodi:namedview><defs
     id="defs4162"><style
       id="style1">
      .cls-1 {
        fill: #9a1a1c;
        stroke-width: 0px;
      }
    </style></defs><metadata
     id="metadata4165"><rdf:RDF><cc:Work
         rdf:about=""><dc:format>image/svg+xml</dc:format><dc:type
           rdf:resource="http://purl.org/dc/dcmitype/StillImage" /><dc:title /></cc:Work></rdf:RDF></metadata><g
     id="layer2"
     style="display:inline;stroke:none"
     transform="translate(-3.5328446,2.2636422)"><g
       id="g2"
       transform="matrix(0.32382436,0,0,0.32382436,7.0332807,1.6655439)"><path
         class="cls-1"
         d="M 111.07,106.72 C 96.21,121.8 78.53,127.92 58.27,126.62 41.55,125.55 27.65,118.43 16.22,106.18 -5.63,82.74 -5.07,44.73 15.87,22.19 28.64,8.45 44.15,0.59 63.08,0.03 c 18.95,-0.56 34.46,7.04 48.01,21.07 0,-5.31 0.14,-9.77 -0.05,-14.21 -0.12,-2.85 0.82,-3.96 3.73,-3.83 4.29,0.18 8.59,0.1 12.89,0.03 2.18,-0.04 2.98,0.86 2.98,3.05 -0.07,34.7 0.07,69.4 -0.21,104.09 -0.08,9.88 -1.29,19.79 -5.31,29.03 -6.92,15.91 -19.09,25.97 -35.59,30.54 -20.74,5.74 -41.17,4.9 -60.61,-5.03 C 15.9,158.12 7.41,147.2 1.74,133.91 c -0.78,-1.82 -0.38,-2.58 1.65,-2.57 5.3,0.04 10.59,0.05 15.89,0 1.61,-0.02 2.58,0.7 3.39,1.99 9.24,14.81 23.01,21.14 40.05,21.62 10.37,0.29 20.25,-1.25 29.56,-6.09 10.19,-5.3 15.93,-13.65 17.58,-24.9 0.8,-5.5 1.09,-11.04 1.24,-17.23 z M 19.6,63.84 c -0.26,15.56 5.98,27.01 17.43,35.65 10.44,7.88 22.5,9.86 35.2,8.41 16.53,-1.89 29.24,-9.88 35.74,-25.41 6.4,-15.29 5.46,-30.7 -4.23,-44.52 C 93.51,23.37 78.93,17.68 61.29,19.35 37.81,21.57 19.6,41.36 19.6,63.85 Z"
         id="path1" /><path
         class="cls-1"
         d="m 158.71,97.12 c 9.84,0 17.31,7.36 17.31,17.08 0,9.62 -7.68,17.41 -17.2,17.45 -9.49,0.04 -17.29,-7.77 -17.31,-17.34 -0.02,-9.75 7.42,-17.19 17.21,-17.19 z"
         id="path2" /></g></g></svg>
